<?xml version="1.0" encoding="utf-8"?>
<!-- Generator: Adobe Adobe Illustrator 24.2.0, SVG Export Plug-In . SVG Version: 6.00 Build 0)  -->
<svg version="1.1" xmlns="http://www.w3.org/2000/svg" xmlns:xlink="http://www.w3.org/1999/xlink" x="0px" y="0px" width="375px"
	 height="375px" viewBox="0 0 375 375" style="enable-background:new 0 0 375 375;" xml:space="preserve">
<style type="text/css">
	.st0{fill:#1C1C1C;}
	
		.st1{clip-path:url(#SVGID_2_);fill:#FE6834;stroke:#FE491D;stroke-width:4.3141;stroke-linecap:round;stroke-linejoin:round;stroke-miterlimit:10;}
	.st2{fill:none;stroke:#000000;stroke-width:4;stroke-linecap:round;stroke-linejoin:round;}
	.st3{stroke:#000000;stroke-width:0.7061;stroke-miterlimit:10;}
	
		.st4{clip-path:url(#SVGID_4_);fill:#FE6834;stroke:#FE491D;stroke-width:4.3141;stroke-linecap:round;stroke-linejoin:round;stroke-miterlimit:10;}
	
		.st5{clip-path:url(#SVGID_6_);fill:#FE6834;stroke:#FE491D;stroke-width:4.3141;stroke-linecap:round;stroke-linejoin:round;stroke-miterlimit:10;}
	
		.st6{clip-path:url(#SVGID_8_);fill:#FE6834;stroke:#FE491D;stroke-width:4.3141;stroke-linecap:round;stroke-linejoin:round;stroke-miterlimit:10;}
	
		.st7{clip-path:url(#SVGID_10_);fill:none;stroke:#FA8F00;stroke-width:3;stroke-linecap:round;stroke-linejoin:round;stroke-miterlimit:10;}
	
		.st8{clip-path:url(#SVGID_12_);fill:none;stroke:#FA8F00;stroke-width:3;stroke-linecap:round;stroke-linejoin:round;stroke-miterlimit:10;}
	
		.st9{clip-path:url(#SVGID_14_);fill:none;stroke:#CAFFFF;stroke-width:3;stroke-linecap:round;stroke-linejoin:round;stroke-miterlimit:10;}
	
		.st10{clip-path:url(#SVGID_16_);fill:none;stroke:#F5C242;stroke-width:3;stroke-linecap:round;stroke-linejoin:round;stroke-miterlimit:10;}
	
		.st11{clip-path:url(#SVGID_18_);fill:none;stroke:#FFFFFF;stroke-width:3;stroke-linecap:round;stroke-linejoin:round;stroke-miterlimit:10;}
	.st12{clip-path:url(#SVGID_20_);}
	.st13{fill:#FA8F00;}
	.st14{fill:#6591FE;}
	.st15{fill:#C483D9;}
	.st16{fill:#FE6834;}
	.st17{fill:#F5C242;}
	.st18{fill:#F5C242;stroke:#F5C242;stroke-width:3;stroke-linecap:round;stroke-linejoin:round;stroke-miterlimit:10;}
	.st19{fill:none;stroke:#1C1C1C;stroke-width:3;stroke-linecap:round;stroke-linejoin:round;stroke-miterlimit:10;}
	.st20{fill:#FF5A15;stroke:#FF5A15;stroke-width:3;stroke-linecap:round;stroke-linejoin:round;stroke-miterlimit:10;}
	.st21{fill:#FF5A15;stroke:#FF5A15;stroke-miterlimit:10;}
	.st22{fill:#C483D9;stroke:#C483D9;stroke-width:3;stroke-linecap:round;stroke-linejoin:round;stroke-miterlimit:10;}
	
		.st23{clip-path:url(#SVGID_22_);fill:#FE6834;stroke:#FE491D;stroke-width:4.3141;stroke-linecap:round;stroke-linejoin:round;stroke-miterlimit:10;}
	.st24{fill:none;stroke:#F5C242;stroke-width:4;stroke-linecap:round;stroke-linejoin:round;}
	.st25{fill:#F5C242;stroke:#F5C242;stroke-width:0.7061;stroke-miterlimit:10;}
	
		.st26{clip-path:url(#SVGID_24_);fill:#FE6834;stroke:#FE491D;stroke-width:4.3141;stroke-linecap:round;stroke-linejoin:round;stroke-miterlimit:10;}
	
		.st27{clip-path:url(#SVGID_26_);fill:#FE6834;stroke:#FE491D;stroke-width:4.3141;stroke-linecap:round;stroke-linejoin:round;stroke-miterlimit:10;}
	
		.st28{clip-path:url(#SVGID_28_);fill:#FE6834;stroke:#FE491D;stroke-width:4.3141;stroke-linecap:round;stroke-linejoin:round;stroke-miterlimit:10;}
	
		.st29{clip-path:url(#SVGID_30_);fill:none;stroke:#FA8F00;stroke-width:3;stroke-linecap:round;stroke-linejoin:round;stroke-miterlimit:10;}
	.st30{clip-path:url(#SVGID_32_);}
	.st31{fill:none;stroke:#FA8F00;stroke-width:3;stroke-linecap:round;stroke-linejoin:round;stroke-miterlimit:10;}
	.st32{fill:none;stroke:#F5C242;stroke-width:3;stroke-linecap:round;stroke-linejoin:round;stroke-miterlimit:10;}
	.st33{fill:none;stroke:#FFFFFF;stroke-width:3;stroke-linecap:round;stroke-linejoin:round;stroke-miterlimit:10;}
	.st34{fill:#FFFFFF;}
	.st35{fill:none;stroke:#CAFFFF;stroke-width:3;stroke-linecap:round;stroke-linejoin:round;stroke-miterlimit:10;}
	.st36{fill:#CAFFFF;}
</style>
<g id="Backgrounds">
</g>
<g id="Design_Elements">
	<g>
		<path class="st14" d="M144.19,147.56c-0.95,17.69,6.4,35.66,19.49,47.61c5.87,5.36,12.8,9.56,18.21,15.39
			c1.94,2.1,3.76,4.63,3.74,7.5c-0.01,2.5-1.42,4.77-1.89,7.22s0.67,5.66,3.6,6.01c-2.94,3.91-1.16,10.41,3.36,12.28
			c3.15,1.3,7.15,0.65,9.66,2.96c2.21,2.04,2.33,5.61,4.4,7.78c2.58,2.71,7.31,2.1,10.19-0.29c2.88-2.39,4.37-6.02,5.75-9.5
			c3.27-8.24,6.57-17.38,3.6-25.73c-0.91-2.58-2.39-4.93-3.24-7.53c-1.6-4.93-0.79-10.35,0.85-15.26c1.64-4.92,4.09-9.53,5.85-14.4
			c5.18-14.32,3.95-31.1-4.35-43.87c-8.3-12.77-23.83-20.84-38.96-19.07c-8.79,1.02-17.03,5.14-23.87,10.76
			C153.77,135.03,148.26,142.11,144.19,147.56z"/>
		<g>
			<g>
				<path class="st0" d="M179.99,216.6c-0.36-2.41-1.52-4.6-3.06-6.42c-1.53-1.83-3.4-3.35-5.42-4.6
					c-4.05-2.52-8.63-4.18-12.86-6.84c-4.21-2.69-7.78-6.36-10.54-10.53c-2.78-4.17-4.73-8.86-5.9-13.74
					c-0.62-2.43-0.95-4.93-1.18-7.43c-0.06-1.25-0.16-2.51-0.11-3.76c0.01-0.63,0.01-1.26,0.04-1.88l0.14-1.88
					c0.39-5.01,1.67-9.94,3.57-14.61c1.96-4.64,4.7-8.99,8.09-12.75c3.42-3.72,7.39-6.96,11.82-9.4l1.66-0.91l1.71-0.81
					c1.13-0.57,2.33-0.97,3.49-1.46c2.38-0.83,4.8-1.58,7.29-2.03c4.95-1.01,10.08-1.17,15.1-0.45c5.02,0.7,9.85,2.37,14.34,4.62
					c4.46,2.32,8.57,5.31,12.07,8.9c3.47,3.6,6.48,7.7,8.53,12.27c1.09,2.25,1.85,4.64,2.55,7.02c0.58,2.42,1.11,4.85,1.3,7.32
					c0.94,9.85-1.38,19.95-6.71,28.09c4.54-8.57,6.18-18.47,4.76-27.85c-1.27-9.42-5.85-18.17-12.62-24.63
					c-1.7-1.6-3.5-3.11-5.43-4.42c-1.89-1.37-3.94-2.5-6.01-3.57c-4.2-2-8.68-3.45-13.28-4c-4.59-0.57-9.27-0.44-13.81,0.53
					c-2.28,0.43-4.5,1.14-6.68,1.91c-1.07,0.45-2.17,0.83-3.2,1.36l-1.57,0.75l-1.52,0.84c-4.08,2.22-7.73,5.16-10.88,8.54
					c-3.13,3.41-5.62,7.38-7.51,11.61c-3.73,8.51-4.8,18.23-2.9,27.38c0.46,2.29,1.13,4.54,1.97,6.72c0.86,2.18,1.9,4.28,3.1,6.3
					c2.4,4.02,5.59,7.59,9.42,10.31c3.83,2.75,8.37,4.66,12.38,7.54c2,1.45,3.84,3.14,5.28,5.15
					C178.83,211.82,179.83,214.16,179.99,216.6z"/>
			</g>
			<g>
				<path class="st0" d="M220.15,194.74c-0.5-0.75-0.67-1.29-0.73-1.77c-0.05-0.47,0.03-0.85,0.23-1.16
					c0.19-0.31,0.51-0.55,0.95-0.7c0.46-0.14,1.02-0.22,1.92-0.08c0.51,0.76,0.67,1.3,0.74,1.77c0.05,0.47-0.03,0.85-0.23,1.16
					c-0.2,0.31-0.51,0.54-0.96,0.7C221.61,194.8,221.05,194.88,220.15,194.74z"/>
			</g>
			<g>
				<path class="st0" d="M218.58,201.75c0.45,0.94,0.69,1.58,0.88,2.15c0.17,0.57,0.25,1.06,0.26,1.55c0,0.49-0.08,0.98-0.25,1.55
					c-0.18,0.58-0.42,1.21-0.88,2.16c-1.04-0.2-1.71-0.78-2.18-1.44c-0.46-0.68-0.69-1.47-0.69-2.26c0-0.79,0.23-1.58,0.69-2.26
					C216.87,202.53,217.55,201.95,218.58,201.75z"/>
			</g>
			<g>
				<path class="st0" d="M190.19,220.97c-2.16,0.34-4.04,1.33-5.43,2.7c-1.42,1.33-2.31,3.11-2.52,4.81
					c-0.1,0.85,0.01,1.66,0.28,2.24c0.29,0.56,0.72,0.97,1.34,1.22c1.27,0.54,3.26,0.46,5.2,0.14c4.17-0.65,8.31-1.42,12.46-2.31
					c4.16-0.86,8.3-1.89,12.58-2.8c-3.63,2.46-7.61,4.32-11.71,5.83c-4.12,1.48-8.38,2.57-12.72,3.23
					c-1.13,0.17-2.32,0.29-3.57,0.24c-1.24-0.07-2.59-0.25-3.91-0.93c-1.32-0.66-2.49-1.91-2.97-3.37c-0.49-1.44-0.4-2.87-0.07-4.12
					C180.55,222.79,185.87,219.91,190.19,220.97z"/>
			</g>
			<g>
				<path class="st0" d="M195.95,219.4c2.77-2.32,6.07-3.97,9.56-5.05c3.49-1.06,7.18-1.56,10.86-1.44c1.85,0.1,3.62,0.19,5.61,0.73
					c0.96,0.27,1.95,0.65,2.88,1.25c0.93,0.59,1.84,1.46,2.35,2.61c0.53,1.12,0.6,2.44,0.29,3.52c-0.3,1.09-0.87,2-1.58,2.74
					c-1.46,1.45-3.18,2.12-4.9,2.64c1.28-1.27,2.65-2.44,3.33-3.82c0.34-0.67,0.54-1.38,0.56-2.02c0.02-0.65-0.17-1.15-0.48-1.58
					c-0.59-0.82-1.88-1.38-3.36-1.65c-0.75-0.14-1.48-0.23-2.34-0.28c-0.83-0.08-1.67-0.11-2.5-0.14c-3.34-0.12-6.69,0.07-10.05,0.5
					C202.81,217.84,199.46,218.57,195.95,219.4z"/>
			</g>
			<g>
				<path class="st0" d="M183.12,238.12c0.86-0.05,1.35,0.04,1.72,0.16c0.36,0.13,0.56,0.31,0.65,0.54c0.08,0.23,0.03,0.5-0.17,0.82
					c-0.21,0.33-0.54,0.7-1.25,1.2c-0.87,0.05-1.35-0.04-1.72-0.16c-0.36-0.13-0.56-0.31-0.64-0.54c-0.08-0.23-0.03-0.5,0.17-0.82
					C182.09,238.99,182.42,238.62,183.12,238.12z"/>
			</g>
			<g>
				<path class="st0" d="M185.66,245.06c0.84,0.56,1.78,0.65,2.69,0.59c0.91-0.07,1.84-0.25,2.8-0.46c1.91-0.35,3.79-0.76,5.66-1.18
					c3.73-0.85,7.4-1.82,11.02-2.99c1.81-0.57,3.6-1.19,5.39-1.85c1.77-0.67,3.59-1.35,5.26-2.09c1.67-0.77,3.3-1.64,4.69-2.81
					c1.4-1.14,2.53-2.63,3.06-4.58c0.39,1.99-0.38,4.18-1.61,5.9c-1.26,1.71-2.88,3.11-4.61,4.23c-1.75,1.14-3.52,2.01-5.35,2.86
					c-1.82,0.83-3.71,1.54-5.61,2.15c-3.82,1.22-7.79,1.98-11.78,2.28c-1.99,0.15-4,0.13-5.99,0.03c-0.98-0.08-2.01-0.12-3.04-0.4
					c-0.51-0.14-1.02-0.33-1.47-0.6C186.3,245.85,185.91,245.49,185.66,245.06z"/>
			</g>
			<g>
				<path class="st0" d="M195.59,250.01c0.31,1.52,1.27,2.59,2.37,3.24c1.11,0.66,2.39,1.03,3.76,1.3c2.68,0.56,5.4,0.61,7.94,0.08
					c2.54-0.55,4.85-1.67,6.73-3.54c1.89-1.85,3.33-4.27,3.86-7.32c1.17,2.92,0.47,6.56-1.42,9.3c-0.93,1.4-2.18,2.61-3.63,3.55
					c-1.44,0.94-3.06,1.55-4.71,1.92c-3.32,0.69-6.75,0.27-9.73-1.01c-1.46-0.63-2.98-1.49-4.1-2.84
					C195.54,253.36,194.98,251.5,195.59,250.01z"/>
			</g>
			<g>
				<path class="st0" d="M190.43,211.9c-0.25-6.66-0.99-13.26-2.43-19.69c-0.7-3.22-1.53-6.4-2.55-9.52
					c-1.04-3.11-2.07-6.25-3.53-9.05c-1.45-2.8-3.36-5.26-5.81-6.91c-1.22-0.81-2.55-1.4-3.92-1.68c-0.7-0.15-1.32-0.18-1.75-0.08
					c-0.43,0.1-0.51,0.24-0.58,0.38c-0.07,0.14-0.1,0.56,0.07,1.06c0.17,0.5,0.44,1,0.84,1.42c0.88,0.98,2.07,1.74,3.41,2.3
					c2.69,1.11,5.98,1.61,9.11,1.9c6.29,0.58,12.76-0.37,17.9-3.76c2.57-1.65,4.81-3.84,6.3-6.45c0.73-1.3,1.4-2.76,1.44-3.87
					c0.03-0.56-0.06-1-0.32-1.39c-0.25-0.4-0.69-0.75-1.2-0.98c-1.07-0.48-2.27-0.37-3.39,0.32c-1.12,0.68-2.03,1.81-2.62,3.13
					c-0.61,1.34-0.93,2.88-1.15,4.47c-0.21,1.61-0.37,3.24-0.45,4.87c-0.36,6.54,0.42,13.16,2.18,19.58
					c-2.6-6.14-3.96-12.85-4.14-19.61c-0.04-1.69,0.02-3.38,0.13-5.08c0.13-1.7,0.36-3.48,1.01-5.23c0.64-1.75,1.8-3.42,3.48-4.56
					c0.84-0.57,1.82-0.99,2.91-1.15c1.1-0.16,2.19-0.02,3.22,0.36c1.01,0.4,1.99,1.05,2.69,2.02c0.73,0.97,1.05,2.23,1.02,3.32
					c-0.01,1.11-0.28,2.1-0.6,2.99c-0.33,0.88-0.7,1.7-1.13,2.51c-1.72,3.23-4.32,5.89-7.27,7.91c-2.96,2.03-6.39,3.36-9.85,4.05
					c-3.48,0.7-7.02,0.82-10.48,0.54c-1.73-0.16-3.44-0.42-5.15-0.75c-1.71-0.35-3.46-0.8-5.17-1.54c-1.7-0.74-3.4-1.8-4.74-3.31
					c-0.73-0.8-1.3-1.78-1.64-2.87c-0.33-1.07-0.46-2.43,0.18-3.81c0.32-0.67,0.83-1.26,1.44-1.67c0.61-0.42,1.27-0.64,1.87-0.74
					c1.21-0.21,2.28-0.04,3.2,0.17c1.89,0.43,3.62,1.28,5.14,2.35c3.06,2.15,5.18,5.26,6.62,8.42c1.45,3.19,2.39,6.43,3.24,9.69
					c0.84,3.27,1.49,6.57,1.96,9.9C190.84,198.53,191.05,205.27,190.43,211.9z"/>
			</g>
			<g>
				<path class="st0" d="M203.73,195c0.81,0.33,1.25,0.55,1.57,0.75c0.31,0.2,0.47,0.38,0.51,0.59c0.04,0.2-0.04,0.43-0.25,0.73
					c-0.22,0.31-0.55,0.68-1.18,1.28c-0.88,0.09-1.41-0.09-1.81-0.32c-0.39-0.24-0.61-0.58-0.68-0.94
					c-0.07-0.36,0.02-0.75,0.29-1.12C202.46,195.61,202.89,195.25,203.73,195z"/>
			</g>
			<g>
				<path class="st0" d="M205.46,204.32c0.87,0.15,1.35,0.37,1.7,0.61c0.34,0.25,0.53,0.52,0.59,0.82c0.06,0.3-0.02,0.62-0.26,0.97
					c-0.25,0.35-0.62,0.73-1.38,1.18c-0.87-0.15-1.35-0.37-1.71-0.61c-0.34-0.25-0.53-0.52-0.58-0.82c-0.05-0.3,0.03-0.62,0.26-0.97
					C204.34,205.14,204.7,204.76,205.46,204.32z"/>
			</g>
		</g>
	</g>
</g>
</svg>
