<?xml version="1.0" encoding="utf-8"?>
<!-- Generator: Adobe Adobe Illustrator 24.2.0, SVG Export Plug-In . SVG Version: 6.00 Build 0)  -->
<svg version="1.1" xmlns="http://www.w3.org/2000/svg" xmlns:xlink="http://www.w3.org/1999/xlink" x="0px" y="0px" width="375px"
	 height="375px" viewBox="0 0 375 375" style="enable-background:new 0 0 375 375;" xml:space="preserve">
<style type="text/css">
	.st0{fill:#1C1C1C;}
	
		.st1{clip-path:url(#SVGID_2_);fill:#FE6834;stroke:#FE491D;stroke-width:4.3141;stroke-linecap:round;stroke-linejoin:round;stroke-miterlimit:10;}
	.st2{fill:none;stroke:#000000;stroke-width:4;stroke-linecap:round;stroke-linejoin:round;}
	.st3{stroke:#000000;stroke-width:0.7061;stroke-miterlimit:10;}
	
		.st4{clip-path:url(#SVGID_4_);fill:#FE6834;stroke:#FE491D;stroke-width:4.3141;stroke-linecap:round;stroke-linejoin:round;stroke-miterlimit:10;}
	
		.st5{clip-path:url(#SVGID_6_);fill:#FE6834;stroke:#FE491D;stroke-width:4.3141;stroke-linecap:round;stroke-linejoin:round;stroke-miterlimit:10;}
	
		.st6{clip-path:url(#SVGID_8_);fill:#FE6834;stroke:#FE491D;stroke-width:4.3141;stroke-linecap:round;stroke-linejoin:round;stroke-miterlimit:10;}
	
		.st7{clip-path:url(#SVGID_10_);fill:none;stroke:#FA8F00;stroke-width:3;stroke-linecap:round;stroke-linejoin:round;stroke-miterlimit:10;}
	
		.st8{clip-path:url(#SVGID_12_);fill:none;stroke:#FA8F00;stroke-width:3;stroke-linecap:round;stroke-linejoin:round;stroke-miterlimit:10;}
	
		.st9{clip-path:url(#SVGID_14_);fill:none;stroke:#CAFFFF;stroke-width:3;stroke-linecap:round;stroke-linejoin:round;stroke-miterlimit:10;}
	
		.st10{clip-path:url(#SVGID_16_);fill:none;stroke:#F5C242;stroke-width:3;stroke-linecap:round;stroke-linejoin:round;stroke-miterlimit:10;}
	
		.st11{clip-path:url(#SVGID_18_);fill:none;stroke:#FFFFFF;stroke-width:3;stroke-linecap:round;stroke-linejoin:round;stroke-miterlimit:10;}
	.st12{clip-path:url(#SVGID_20_);}
	.st13{fill:#FA8F00;}
	.st14{fill:#6591FE;}
	.st15{fill:#C483D9;}
	.st16{fill:#FE6834;}
	.st17{fill:#F5C242;}
	.st18{fill:#F5C242;stroke:#F5C242;stroke-width:3;stroke-linecap:round;stroke-linejoin:round;stroke-miterlimit:10;}
	.st19{fill:none;stroke:#1C1C1C;stroke-width:3;stroke-linecap:round;stroke-linejoin:round;stroke-miterlimit:10;}
	.st20{fill:#FF5A15;stroke:#FF5A15;stroke-width:3;stroke-linecap:round;stroke-linejoin:round;stroke-miterlimit:10;}
	.st21{fill:#FF5A15;stroke:#FF5A15;stroke-miterlimit:10;}
	.st22{fill:#C483D9;stroke:#C483D9;stroke-width:3;stroke-linecap:round;stroke-linejoin:round;stroke-miterlimit:10;}
	
		.st23{clip-path:url(#SVGID_22_);fill:#FE6834;stroke:#FE491D;stroke-width:4.3141;stroke-linecap:round;stroke-linejoin:round;stroke-miterlimit:10;}
	.st24{fill:none;stroke:#F5C242;stroke-width:4;stroke-linecap:round;stroke-linejoin:round;}
	.st25{fill:#F5C242;stroke:#F5C242;stroke-width:0.7061;stroke-miterlimit:10;}
	
		.st26{clip-path:url(#SVGID_24_);fill:#FE6834;stroke:#FE491D;stroke-width:4.3141;stroke-linecap:round;stroke-linejoin:round;stroke-miterlimit:10;}
	
		.st27{clip-path:url(#SVGID_26_);fill:#FE6834;stroke:#FE491D;stroke-width:4.3141;stroke-linecap:round;stroke-linejoin:round;stroke-miterlimit:10;}
	
		.st28{clip-path:url(#SVGID_28_);fill:#FE6834;stroke:#FE491D;stroke-width:4.3141;stroke-linecap:round;stroke-linejoin:round;stroke-miterlimit:10;}
	
		.st29{clip-path:url(#SVGID_30_);fill:none;stroke:#FA8F00;stroke-width:3;stroke-linecap:round;stroke-linejoin:round;stroke-miterlimit:10;}
	.st30{clip-path:url(#SVGID_32_);}
	.st31{fill:none;stroke:#FA8F00;stroke-width:3;stroke-linecap:round;stroke-linejoin:round;stroke-miterlimit:10;}
	.st32{fill:none;stroke:#F5C242;stroke-width:3;stroke-linecap:round;stroke-linejoin:round;stroke-miterlimit:10;}
	.st33{fill:none;stroke:#FFFFFF;stroke-width:3;stroke-linecap:round;stroke-linejoin:round;stroke-miterlimit:10;}
	.st34{fill:#FFFFFF;}
	.st35{fill:none;stroke:#CAFFFF;stroke-width:3;stroke-linecap:round;stroke-linejoin:round;stroke-miterlimit:10;}
	.st36{fill:#CAFFFF;}
</style>
<g id="Backgrounds">
</g>
<g id="Design_Elements">
	<g>
		<g>
			<defs>
				<path id="SVGID_3_" d="M271.24,221.46c-7.26,4.79-15.56,8.89-24.53,12.28c1.32,9.69,10.67,18.35,19.6,21.74
					c-5.58,2.5-12.07,2.29-15.23,1.21c-4.95-1.68-9.17-5-12.27-9.22c-2.86-3.91-4.64-6.47-4.92-9.53
					c-30.33,8.63-65.95,9.72-95.69,1.77c-14.19-4.8-27.68-11.65-39.96-20.25c-16.93-11.88-26.2-34.51-13.62-56.82
					c9.23-16.36,33.88-26.22,53.7-32.11c24.14-7.18,41.75-6.13,61.02-4.04c17.1,1.84,32.96,6.56,48.69,13.49
					c15.73,6.95,29.94,19.03,35.81,35.2C289.69,191.35,285.78,212.28,271.24,221.46z"/>
			</defs>
			<use xlink:href="#SVGID_3_"  style="overflow:visible;fill:#FE6834;"/>
			<clipPath id="SVGID_2_">
				<use xlink:href="#SVGID_3_"  style="overflow:visible;"/>
			</clipPath>
			<path class="st1" d="M78.74,174.5c17.22-12.08,36.52-20.9,56.23-28.23c15.76-5.86,31.85-10.82,48.17-14.84
				c15.07-3.71,30.98-6.62,46-2.67c3.13,0.82,6.8,2.82,6.54,6.05c-0.22,2.6-2.92,4.16-5.29,5.26
				c-26.84,12.48-53.68,24.96-80.52,37.44c-16.94,7.88-34.73,16.46-45.11,31.99c-1.92,2.87-3.53,6.81-1.49,9.6
				c1.93,2.65,5.85,2.54,9.08,2.06c42.42-6.26,80.29-29.1,120.48-44.03c15.76-5.85,32.54-10.56,49.22-8.43
				c1.71,0.22,3.61,0.64,4.53,2.1c1.62,2.6-1.16,5.68-3.7,7.38c-23.44,15.7-51.86,22.37-76.03,36.92
				c-13.34,8.03-25.17,18.33-36.31,29.2"/>
		</g>
		<g>
			<g>
				<path class="st2" d="M296.79,180.81c0-34.94-48.94-63.27-109.29-63.27c-60.37,0-109.29,28.33-109.29,63.27
					c0,34.94,48.92,63.27,109.29,63.27c16.55,0,32.26-2.13,46.3-5.95c1.88,5.46,5.52,10.32,10.31,13.59
					c6.4,4.37,14.71,5.78,22.19,3.77c-5.59-3.06-10.07-8.12-12.44-14.05c-1.21-3.03-1.85-6.26-1.94-9.52
					C279.12,220.42,296.79,201.81,296.79,180.81z"/>
			</g>
		</g>
		<g>
			<path class="st3" d="M132.13,201.43c0-7.29,4.84-16.3,8.41-21.43c-2.01,0.3-4.24,1.27-6.55,2.98l-4.02-5.36
				c5.36-3.8,10.42-5.43,15.26-4.09c7.74-9.82,24.41-24.63,33.41-16.82c7.74,6.77,0.37,17.12-6.47,23.29
				c-6.1,5.51-8.11,6.85-7.67,8.11c0.22,0.6,3.35,0.89,6.77,2.01c4.32,1.41,9.23,4.17,8.86,10.49c-0.74,13.32-18.53,15.18-29.1,5.58
				l4.17-5.58c6.18,5.73,17.71,6.7,17.79,0.3c0.07-3.57-3.57-4.39-8.33-6.03c-2.68-0.89-7.89-2.31-7.89-5.95
				c0-3.27,3.05-5.95,7.59-10.34c3.72-3.57,13.62-12.13,9.75-15.85c-4.47-4.24-19.42,9.67-23.37,14.51
				c2.53,2.9,3.72,6.92,3.72,11.68c0,10.12-7.59,24.41-17.34,20.61C133.99,208.35,132.13,205.3,132.13,201.43z M146.87,195.55
				c1.27-4.47,1.49-9.75-0.3-12.58c-1.93,2.68-3.87,6.18-5.28,9.53c-2.16,5.13-3.05,9.82-0.97,10.57
				C143.07,203.96,145.53,200.24,146.87,195.55z"/>
			<path d="M202.19,174.7v8.19h-7.81v29.54l-8.93,0v-36.84c0-11.39,6.62-19.5,19.72-19.5h4.02v8.19h-5.06
				c-6.55,0-9.67,5.21-9.67,10.42H202.19z"/>
			<path d="M228.83,174.65v8.19h-7.81v29.54h-8.93l0-36.84c0-11.39,6.62-19.5,19.72-19.5h4.02l0,8.19h-5.06
				c-6.55,0-9.67,5.21-9.67,10.42H228.83z"/>
		</g>
	</g>
</g>
</svg>
