<?xml version="1.0" encoding="utf-8"?>
<!-- Generator: Adobe Adobe Illustrator 24.2.0, SVG Export Plug-In . SVG Version: 6.00 Build 0)  -->
<svg version="1.1" xmlns="http://www.w3.org/2000/svg" xmlns:xlink="http://www.w3.org/1999/xlink" x="0px" y="0px" width="375px"
	 height="375px" viewBox="0 0 375 375" style="enable-background:new 0 0 375 375;" xml:space="preserve">
<style type="text/css">
	.st0{fill:#1C1C1C;}
	
		.st1{clip-path:url(#SVGID_2_);fill:#FE6834;stroke:#FE491D;stroke-width:4.3141;stroke-linecap:round;stroke-linejoin:round;stroke-miterlimit:10;}
	.st2{fill:none;stroke:#000000;stroke-width:4;stroke-linecap:round;stroke-linejoin:round;}
	.st3{stroke:#000000;stroke-width:0.7061;stroke-miterlimit:10;}
	
		.st4{clip-path:url(#SVGID_4_);fill:#FE6834;stroke:#FE491D;stroke-width:4.3141;stroke-linecap:round;stroke-linejoin:round;stroke-miterlimit:10;}
	
		.st5{clip-path:url(#SVGID_6_);fill:#FE6834;stroke:#FE491D;stroke-width:4.3141;stroke-linecap:round;stroke-linejoin:round;stroke-miterlimit:10;}
	
		.st6{clip-path:url(#SVGID_8_);fill:#FE6834;stroke:#FE491D;stroke-width:4.3141;stroke-linecap:round;stroke-linejoin:round;stroke-miterlimit:10;}
	
		.st7{clip-path:url(#SVGID_10_);fill:none;stroke:#FA8F00;stroke-width:3;stroke-linecap:round;stroke-linejoin:round;stroke-miterlimit:10;}
	
		.st8{clip-path:url(#SVGID_12_);fill:none;stroke:#FA8F00;stroke-width:3;stroke-linecap:round;stroke-linejoin:round;stroke-miterlimit:10;}
	
		.st9{clip-path:url(#SVGID_14_);fill:none;stroke:#CAFFFF;stroke-width:3;stroke-linecap:round;stroke-linejoin:round;stroke-miterlimit:10;}
	
		.st10{clip-path:url(#SVGID_16_);fill:none;stroke:#F5C242;stroke-width:3;stroke-linecap:round;stroke-linejoin:round;stroke-miterlimit:10;}
	
		.st11{clip-path:url(#SVGID_18_);fill:none;stroke:#FFFFFF;stroke-width:3;stroke-linecap:round;stroke-linejoin:round;stroke-miterlimit:10;}
	.st12{clip-path:url(#SVGID_20_);}
	.st13{fill:#FA8F00;}
	.st14{fill:#6591FE;}
	.st15{fill:#C483D9;}
	.st16{fill:#FE6834;}
	.st17{fill:#F5C242;}
	.st18{fill:#F5C242;stroke:#F5C242;stroke-width:3;stroke-linecap:round;stroke-linejoin:round;stroke-miterlimit:10;}
	.st19{fill:none;stroke:#1C1C1C;stroke-width:3;stroke-linecap:round;stroke-linejoin:round;stroke-miterlimit:10;}
	.st20{fill:#FF5A15;stroke:#FF5A15;stroke-width:3;stroke-linecap:round;stroke-linejoin:round;stroke-miterlimit:10;}
	.st21{fill:#FF5A15;stroke:#FF5A15;stroke-miterlimit:10;}
	.st22{fill:#C483D9;stroke:#C483D9;stroke-width:3;stroke-linecap:round;stroke-linejoin:round;stroke-miterlimit:10;}
	
		.st23{clip-path:url(#SVGID_22_);fill:#FE6834;stroke:#FE491D;stroke-width:4.3141;stroke-linecap:round;stroke-linejoin:round;stroke-miterlimit:10;}
	.st24{fill:none;stroke:#F5C242;stroke-width:4;stroke-linecap:round;stroke-linejoin:round;}
	.st25{fill:#F5C242;stroke:#F5C242;stroke-width:0.7061;stroke-miterlimit:10;}
	
		.st26{clip-path:url(#SVGID_24_);fill:#FE6834;stroke:#FE491D;stroke-width:4.3141;stroke-linecap:round;stroke-linejoin:round;stroke-miterlimit:10;}
	
		.st27{clip-path:url(#SVGID_26_);fill:#FE6834;stroke:#FE491D;stroke-width:4.3141;stroke-linecap:round;stroke-linejoin:round;stroke-miterlimit:10;}
	
		.st28{clip-path:url(#SVGID_28_);fill:#FE6834;stroke:#FE491D;stroke-width:4.3141;stroke-linecap:round;stroke-linejoin:round;stroke-miterlimit:10;}
	
		.st29{clip-path:url(#SVGID_30_);fill:none;stroke:#FA8F00;stroke-width:3;stroke-linecap:round;stroke-linejoin:round;stroke-miterlimit:10;}
	.st30{clip-path:url(#SVGID_32_);}
	.st31{fill:none;stroke:#FA8F00;stroke-width:3;stroke-linecap:round;stroke-linejoin:round;stroke-miterlimit:10;}
	.st32{fill:none;stroke:#F5C242;stroke-width:3;stroke-linecap:round;stroke-linejoin:round;stroke-miterlimit:10;}
	.st33{fill:none;stroke:#FFFFFF;stroke-width:3;stroke-linecap:round;stroke-linejoin:round;stroke-miterlimit:10;}
	.st34{fill:#FFFFFF;}
	.st35{fill:none;stroke:#CAFFFF;stroke-width:3;stroke-linecap:round;stroke-linejoin:round;stroke-miterlimit:10;}
	.st36{fill:#CAFFFF;}
</style>
<g id="Backgrounds">
</g>
<g id="Design_Elements">
	<g>
		<g>
			<g>
				<path class="st21" d="M268.61,212.38c-7.44-12.72-18.34-23.18-30.56-31.43c-12.21-8.24-25.74-14.36-39.5-19.61
					c-3.28-1.24-6.73-2.47-10.2-2c-1.26,0.17-2.51,0.64-3.6,1.34c2.19-2.5,4.97-4.4,7.92-5.79c4.78-2.24,9.8-2.4,15.18-3.27
					c5.37-0.87,10.87-2.78,16.24-1.91c6.17,0.99,11.72,4.21,17.6,6.33c4.15,1.49,8.49,2.43,12.88,2.8c1.4,0.11,2.83,0.17,4.17-0.26
					c1.34-0.42,2.58-1.41,2.94-2.76c0.6-2.23-1.43-4.47-3.68-4.98c-1.89-0.43-3.85,0.02-5.73,0.59c2.32-0.88,4.02-2.45,4.68-4.41
					s0.28-4.22-0.96-5.88c-0.9,0.77-1.94,1.35-3.07,1.69l0.55-2.12l1.94-0.25c0.21,0.21,0.41,0.44,0.58,0.68
					c1.33-1.14,2.34-2.68,2.78-4.39c0.74-2.84-0.11-6.05-2.16-8.15l-0.02,0.06c0.66,1.68,0.44,3.77-0.88,5l-0.43,0.08l1.31-5.08
					c-0.01-0.05-0.03-0.09-0.05-0.14c-0.73-1.7-2.2-2.97-3.78-3.93c-3.41-2.05-8.12-2.7-11.17-0.16c2.65-4.48,4.24-9.11,5.14-13.9
					c0.21-1.13,0.38-2.34-0.08-3.4c-0.45-1.06-1.76-1.84-2.79-1.33c-1.32-0.33-2.86,0.85-3.74,2.25c-0.88,1.4-1.29,3.04-2,4.53
					c-2.42,5.13-8.06,8.06-13.64,9.08c-5.59,1.01-11.32,0.46-16.99,0.61c-16.61,0.43-32.98,7.08-45.19,18.35
					c-1.82,1.68-3.66,3.53-6.06,4.16c-3,0.78-6.09-0.51-8.98-1.63c-6.18-2.4-12.64-4.09-19.21-5.03c-5.2-0.74-10.54-1-15.65,0.2
					c-5.11,1.21-9.99,4.03-12.85,8.43c-2.87,4.4-3.37,10.47-0.53,14.88l7.91-1.41c14.12-0.43,28.35,2.72,40.93,9.15
					c-2.16,18.26,3.31,37.34,13.54,53.12c10.23,15.78,25.04,28.34,41.64,37.18c12.35,6.57,26.29,11.24,40.19,9.68
					c13.9-1.57,27.59-10.52,31.56-23.94C278.06,234.36,274.43,222.33,268.61,212.38z M240.28,240.03c-2.49,2.32-6.07,3.2-9.48,3.02
					c-3.4-0.18-6.67-1.31-9.84-2.57c-12.27-4.88-22.89-13.3-31.24-23.53c-8.35-10.24-12.68-20.28-11.31-32.97
					c20.24,7.86,37.33,16.11,53.27,31.51c3.57,3.44,9.47,6.04,11.13,10.72C244.47,230.88,243.92,236.65,240.28,240.03z"/>
			</g>
		</g>
		<path class="st19" d="M150.67,203.46c-7.84-17.19-6.5-38.27,3.47-54.33c9.97-16.06,28.26-26.61,47.15-27.21
			c6.45-0.2,12.94,0.67,19.34-0.18c6.4-0.85,13-3.88,15.89-9.64c0.86-1.71,1.35-3.59,2.38-5.21c1.02-1.61,2.79-2.97,4.69-2.73
			c2.66,0.34,3.96,3.48,4.14,6.16c0.32,4.66-1.18,9.42-4.1,13.07"/>
		<path class="st19" d="M247.14,127.67c-0.97,0.3-1.84,0.98-2.3,1.89c-0.46,0.91-0.47,2.05,0.04,2.93c0.49,0.85,1.39,1.4,2.3,1.75
			c2.66,1.03,5.81,0.71,8.2-0.84c1-0.65,1.9-1.54,2.25-2.69c0.57-1.89-0.58-3.96-2.21-5.07s-3.64-1.5-5.58-1.85"/>
		<path class="st19" d="M245.99,134c-0.73,0.67-1.09,1.7-1.07,2.69c0.02,0.99,0.38,1.96,0.92,2.8c1.49,2.35,4.38,3.72,7.14,3.39
			c2.76-0.33,5.25-2.34,6.15-4.97"/>
		<path class="st19" d="M246.38,141.56c-1.21,0.24-2.31,0.98-2.99,2.01s-0.92,2.34-0.66,3.54c0.26,1.2,0.99,2.27,1.95,3.04
			c0.96,0.77,2.13,1.24,3.34,1.47c3.66,0.71,7.66-0.9,9.8-3.95"/>
		<path class="st19" d="M255.62,150.37c1.83,0.11,3.72,0.25,5.33,1.13c1.61,0.88,2.83,2.74,2.38,4.51
			c-0.47,1.85-2.45,2.85-4.29,3.34c-7.48,1.99-15.35-0.67-22.52-3.59c-7.17-2.92-14.61-6.21-22.32-5.49"/>
		<path class="st19" d="M206.79,152.09c0.71-0.16,1.42-0.31,2.12-0.47"/>
		<path class="st19" d="M178.81,184.62c21.52,6.37,41.3,18.5,56.75,34.78c2.38,2.51,4.71,5.2,5.94,8.44s1.17,7.16-0.96,9.89
			c-3.14,4.01-9.19,3.98-14.16,2.88c-15.84-3.49-29.68-14.07-38.57-27.64c-6.68-10.19-10.79-22.55-8.98-34.6
			c1.8-12.05,10.39-23.44,22.23-26.32"/>
		<path class="st19" d="M190.74,157.73c15.3,4.96,30.3,11.13,43.9,19.72c13.6,8.59,25.79,19.69,34.37,33.29
			c6.91,10.95,11.43,24.58,7.27,36.85c-3.96,11.7-15.36,19.86-27.46,22.31c-12.1,2.45-24.75-0.1-36.25-4.6
			c-28.08-11-51.18-34.11-62.17-62.19"/>
		<path class="st19" d="M114.63,137.1c14.33-1.37,29.04,1.48,41.83,8.1"/>
		<path class="st19" d="M99.26,161.64c15.98-0.63,32.1,2.49,46.69,9.04"/>
	</g>
</g>
</svg>
